[h264 @ 0x5596f48cb400] Reinit context to 1920x1088, pix_fmt: yuv420p
Input #0, mov,mp4,m4a,3gp,3g2,mj2, from '/var/www/html/project/media/video/original/20230516_001332.mp4':
  Metadata:
    major_brand     : mp42
    minor_version   : 0
    compatible_brands: isommp42
    creation_time   : 2023-05-15T22:14:06.000000Z
    com.android.version: 13
    com.android.capture.fps: 60.000000
  Duration: 00:00:31.88, start: 0.000000, bitrate: 26934 kb/s
    Stream #0:0(eng): Video: h264 (High), 1 reference frame (avc1 / 0x31637661), yuv420p(tv, bt709, left), 1920x1080 (1920x1088), 26678 kb/s, 49.47 fps, 59.94 tbr, 90k tbn, 180k tbc (default)
    Metadata:
      creation_time   : 2023-05-15T22:14:06.000000Z
      handler_name    : VideoHandle
    Stream #0:1(eng): Audio: aac (LC) (mp4a / 0x6134706D), 48000 Hz, stereo, fltp, 256 kb/s (default)
    Metadata:
      creation_time   : 2023-05-15T22:14:06.000000Z
      handler_name    : SoundHandle
Input #1, png_pipe, from '/var/www/html/project/static/images/templates/logo.png':
  Duration: N/A, bitrate: N/A
    Stream #1:0: Video: png, 1 reference frame, rgba(pc), 1920x1080 [SAR 2835:2835 DAR 16:9], 25 tbr, 25 tbn, 25 tbc
[h264 @ 0x5596f48e3300] Reinit context to 1280x720, pix_fmt: yuv420p
Input #2, mov,mp4,m4a,3gp,3g2,mj2, from '/var/www/html/project/static/images/templates/Codino.mp4':
  Metadata:
    major_brand     : mp42
    minor_version   : 1
    compatible_brands: isommp41mp42
    creation_time   : 2021-07-11T07:02:58.000000Z
  Duration: 00:00:02.00, start: 0.000000, bitrate: 1007 kb/s
    Stream #2:0(ita): Audio: aac (LC) (mp4a / 0x6134706D), 44100 Hz, stereo, fltp, 102 kb/s (default)
    Metadata:
      creation_time   : 2021-07-11T07:02:58.000000Z
      handler_name    : Core Media Audio
    Stream #2:1(und): Video: h264 (High), 1 reference frame (avc1 / 0x31637661), yuv420p(tv, bt709, progressive, left), 1280x720 [SAR 1:1 DAR 16:9], 813 kb/s, 25 fps, 25 tbr, 25k tbn, 50k tbc (default)
    Metadata:
      creation_time   : 2021-07-11T07:02:58.000000Z
      handler_name    : Core Media Video
[Parsed_scale_0 @ 0x5596f4924680] w:1280 h:720 flags:'bilinear' interl:0
[Parsed_scale_2 @ 0x5596f4925100] w:1280 h:720 flags:'bilinear' interl:0
[Parsed_scale_4 @ 0x5596f4944e40] w:1280 h:720 flags:'bilinear' interl:0
Stream mapping:
  Stream #0:0 (h264) -> scale
  Stream #0:1 (aac) -> concat:in0:a0
  Stream #1:0 (png) -> scale
  Stream #2:0 (aac) -> concat:in1:a0
  Stream #2:1 (h264) -> scale
  concat:out:v0 -> Stream #0:0 (libx264)
  concat:out:a0 -> Stream #0:1 (aac)
Press [q] to stop, [?] for help
[h264 @ 0x5596f491aac0] Reinit context to 1920x1088, pix_fmt: yuv420p
[h264 @ 0x5596f4e91240] Reinit context to 1280x720, pix_fmt: yuv420p
[Parsed_scale_0 @ 0x5596f63d8d80] w:1280 h:720 flags:'bilinear' interl:0
[Parsed_scale_2 @ 0x5596f63d9440] w:1280 h:720 flags:'bilinear' interl:0
[Parsed_scale_4 @ 0x5596f63e24c0] w:1280 h:720 flags:'bilinear' interl:0
[graph 0 input from stream 0:0 @ 0x5596f63e6c40] w:1920 h:1080 pixfmt:yuv420p tb:1/90000 fr:60000/1001 sar:0/1 sws_param:flags=2
[graph 0 input from stream 1:0 @ 0x5596f63e7c40] w:1920 h:1080 pixfmt:rgba tb:1/25 fr:25/1 sar:2835/2835 sws_param:flags=2
[graph 0 input from stream 2:1 @ 0x5596f63e8cc0] w:1280 h:720 pixfmt:yuv420p tb:1/25000 fr:25/1 sar:1/1 sws_param:flags=2
[graph_0_in_0_1 @ 0x5596f63e9c80] tb:1/48000 samplefmt:fltp samplerate:48000 chlayout:0x3
[graph_0_in_2_0 @ 0x5596f63eadc0] tb:1/44100 samplefmt:fltp samplerate:44100 chlayout:0x3
[Parsed_concat_7 @ 0x5596f63e4c80] auto-inserting filter 'auto_resampler_0' between the filter 'graph_0_in_2_0' and the filter 'Parsed_concat_7'
[Parsed_scale_0 @ 0x5596f63d8d80] w:1920 h:1080 fmt:yuv420p sar:0/1 -> w:1280 h:720 fmt:yuv420p sar:0/1 flags:0x2
[Parsed_setsar_1 @ 0x5596f63d8fc0] w:1280 h:720 sar:0/1 dar:16/9 -> sar:1/1 dar:16/9
[Parsed_scale_2 @ 0x5596f63d9440] w:1920 h:1080 fmt:rgba sar:2835/2835 -> w:1280 h:720 fmt:yuva420p sar:1/1 flags:0x2
[Parsed_setsar_3 @ 0x5596f63d8bc0] w:1280 h:720 sar:1/1 dar:16/9 -> sar:1/1 dar:16/9
[Parsed_overlay_6 @ 0x5596f63e3b40] main w:1280 h:720 fmt:yuv420p overlay w:1280 h:720 fmt:yuva420p
[Parsed_overlay_6 @ 0x5596f63e3b40] [framesync @ 0x5596f63e3ca8] Selected 1/90000 time base
[Parsed_overlay_6 @ 0x5596f63e3b40] [framesync @ 0x5596f63e3ca8] Sync level 2
[Parsed_scale_4 @ 0x5596f63e24c0] w:1280 h:720 fmt:yuv420p sar:1/1 -> w:1280 h:720 fmt:yuv420p sar:1/1 flags:0x2
[Parsed_setsar_5 @ 0x5596f63e2fc0] w:1280 h:720 sar:1/1 dar:16/9 -> sar:1/1 dar:16/9
[auto_resampler_0 @ 0x5596f63f2140] ch:2 chl:stereo fmt:fltp r:44100Hz -> ch:2 chl:stereo fmt:fltp r:48000Hz
[libx264 @ 0x5596f4941c00] using SAR=1/1
[libx264 @ 0x5596f4941c00] using cpu capabilities: MMX2 SSE2Fast SSSE3 SSE4.2 AVX FMA3 BMI2 AVX2
[libx264 @ 0x5596f4941c00] profile High, level 3.2
[libx264 @ 0x5596f4941c00] 264 - core 155 r2917 0a84d98 - H.264/MPEG-4 AVC codec - Copyleft 2003-2018 - http://www.videolan.org/x264.html - options: cabac=1 ref=1 deblock=1:0:0 analyse=0x3:0x113 me=hex subme=2 psy=1 psy_rd=1.00:0.00 mixed_ref=0 me_range=16 chroma_me=1 trellis=0 8x8dct=1 cqm=0 deadzone=21,11 fast_pskip=1 chroma_qp_offset=0 threads=22 lookahead_threads=5 sliced_threads=0 nr=0 decimate=1 interlaced=0 bluray_compat=0 constrained_intra=0 bframes=3 b_pyramid=2 b_adapt=1 b_bias=0 direct=1 weightb=1 open_gop=0 weightp=1 keyint=250 keyint_min=25 scenecut=40 intra_refresh=0 rc_lookahead=10 rc=crf mbtree=1 crf=18.0 qcomp=0.60 qpmin=0 qpmax=69 qpstep=4 ip_ratio=1.40 aq=1:1.00
Output #0, mp4, to '/var/www/html/project/media/video/watermarks/20230516_001332.mp4':
  Metadata:
    major_brand     : mp42
    minor_version   : 0
    compatible_brands: isommp42
    com.android.capture.fps: 60.000000
    com.android.version: 13
    encoder         : Lavf58.29.100
    Stream #0:0: Video: h264 (libx264), 1 reference frame (avc1 / 0x31637661), yuv420p, 1280x720 [SAR 1:1 DAR 16:9], q=-1--1, 59.94 fps, 60k tbn, 59.94 tbc (default)
    Metadata:
      encoder         : Lavc58.54.100 libx264
    Side data:
      cpb: bitrate max/min/avg: 0/0/0 buffer size: 0 vbv_delay: -1
    Stream #0:1: Audio: aac (LC) (mp4a / 0x6134706D), 48000 Hz, stereo, fltp, delay 1024, 128 kb/s (default)
    Metadata:
      encoder         : Lavc58.54.100 aac
[Parsed_overlay_6 @ 0x5596f63e3b40] [framesync @ 0x5596f63e3ca8] Sync level 0
[Parsed_concat_7 @ 0x5596f63e4c80] EOF on in0:v0, 1 streams left in segment.
[Parsed_concat_7 @ 0x5596f63e4c80] EOF on in0:a0, 0 streams left in segment.
[Parsed_concat_7 @ 0x5596f63e4c80] Segment finished at pts=31869076
[Parsed_concat_7 @ 0x5596f63e4c80] EOF on in1:v0, 1 streams left in segment.
[Parsed_concat_7 @ 0x5596f63e4c80] EOF on in1:a0, 0 streams left in segment.
[Parsed_concat_7 @ 0x5596f63e4c80] Segment finished at pts=33887763
No more output streams to write to, finishing.
frame= 1627 fps= 70 q=-1.0 Lsize=   30938kB time=00:00:33.89 bitrate=7476.6kbits/s speed=1.46x    
[AVIOContext @ 0x5596f48c9440] Statistics: 0 seeks, 46 writeouts
video:30334kB audio:556kB subtitle:0kB other streams:0kB global headers:0kB muxing overhead: 0.155514%
Input file #0 (/var/www/html/project/media/video/original/20230516_001332.mp4):
  Input stream #0:0 (video): 1577 packets read (106299043 bytes); 1577 frames decoded; 
  Input stream #0:1 (audio): 1493 packets read (1019316 bytes); 1493 frames decoded (1528832 samples); 
  Total: 3070 packets (107318359 bytes) demuxed
Input file #1 (/var/www/html/project/static/images/templates/logo.png):
  Input stream #1:0 (video): 1 packets read (111578 bytes); 1 frames decoded; 
  Total: 1 packets (111578 bytes) demuxed
Input file #2 (/var/www/html/project/static/images/templates/Codino.mp4):
  Input stream #2:0 (audio): 89 packets read (26579 bytes); 87 frames decoded (89024 samples); 
  Input stream #2:1 (video): 50 packets read (203365 bytes); 50 frames decoded; 
  Total: 139 packets (229944 bytes) demuxed
Output file #0 (/var/www/html/project/media/video/watermarks/20230516_001332.mp4):
  Output stream #0:0 (video): 1627 frames encoded; 1627 packets muxed (31061566 bytes); 
  Output stream #0:1 (audio): 1589 frames encoded (1626637 samples); 1590 packets muxed (569661 bytes); 
  Total: 3217 packets (31631227 bytes) muxed
[AVIOContext @ 0x5596f4917f40] Statistics: 2 seeks, 124 writeouts
[libx264 @ 0x5596f4941c00] frame I:8     Avg QP:17.52  size: 93899
[libx264 @ 0x5596f4941c00] frame P:425   Avg QP:21.56  size: 39754
[libx264 @ 0x5596f4941c00] frame B:1194  Avg QP:24.29  size: 11235
[libx264 @ 0x5596f4941c00] consecutive B-frames:  1.6%  1.5%  0.6% 96.4%
[libx264 @ 0x5596f4941c00] mb I  I16..4: 27.9% 16.7% 55.3%
[libx264 @ 0x5596f4941c00] mb P  I16..4: 11.9% 12.0%  4.9%  P16..4: 28.9% 16.8% 14.9%  0.0%  0.0%    skip:10.7%
[libx264 @ 0x5596f4941c00] mb B  I16..4:  2.8%  1.8%  0.2%  B16..8: 22.5%  9.5%  1.9%  direct:20.6%  skip:40.8%  L0:31.7% L1:40.1% BI:28.2%
[libx264 @ 0x5596f4941c00] 8x8 transform intra:39.7% inter:37.8%
[libx264 @ 0x5596f4941c00] coded y,uvDC,uvAC intra: 48.4% 36.8% 8.3% inter: 26.3% 17.4% 0.8%
[libx264 @ 0x5596f4941c00] i16 v,h,dc,p: 43% 24% 24%  8%
[libx264 @ 0x5596f4941c00] i8 v,h,dc,ddl,ddr,vr,hd,vl,hu: 14% 17% 35%  5%  5%  5%  5%  7%  6%
[libx264 @ 0x5596f4941c00] i4 v,h,dc,ddl,ddr,vr,hd,vl,hu: 24% 13% 11%  8%  8% 10%  7% 12%  7%
[libx264 @ 0x5596f4941c00] i8c dc,h,v,p: 61% 18% 17%  4%
[libx264 @ 0x5596f4941c00] Weighted P-Frames: Y:13.9% UV:0.7%
[libx264 @ 0x5596f4941c00] kb/s:7333.49
[aac @ 0x5596f4910ec0] Qavg: 1980.854
[AVIOContext @ 0x5596f48d23c0] Statistics: 107374857 bytes read, 2 seeks
[AVIOContext @ 0x5596f4913480] Statistics: 111578 bytes read, 0 seeks
[AVIOContext @ 0x5596f49fccc0] Statistics: 1530915 bytes read, 42 seeks
